<?xml version="1.0" encoding="utf-8"?>
<!-- Generator: Adobe Illustrator 22.0.0, SVG Export Plug-In . SVG Version: 6.00 Build 0)  -->
<svg version="1.1" id="_x33_" xmlns="http://www.w3.org/2000/svg" xmlns:xlink="http://www.w3.org/1999/xlink" x="0px" y="0px"
	 viewBox="0 0 91.8 90.9" style="enable-background:new 0 0 91.8 90.9;" xml:space="preserve">
<style type="text/css">
	.st0{fill:none;stroke:#FFFFFF;stroke-width:2;stroke-miterlimit:10;}
	.st1{fill:none;stroke:#BD2234;stroke-width:2;stroke-miterlimit:10;}
	.st2{fill:none;stroke:#FFFFFF;stroke-miterlimit:10;}
	.st3{fill:none;stroke:#BD2234;stroke-miterlimit:10;}
	.st4{fill:none;stroke:#29DFAE;stroke-miterlimit:10;}
</style>
<g id="circle_copy_2">
</g>
<path class="st0" d="M46.5,87.6C23,87.6,3.9,68.5,3.9,45S23,2.4,46.5,2.4"/>
<path class="st1" d="M46.5,2.3c23.5,0,42.6,19.1,42.6,42.6S70,87.5,46.5,87.5"/>
<path class="st2" d="M59.1,49.7v11.1c0,1-0.8,1.8-1.8,1.8H32.6c-1,0-1.8-0.8-1.8-1.8V27.5c0-1,0.8-1.8,1.8-1.8h24.6
	c1,0,1.8,0.8,1.8,1.8v5.7"/>
<line class="st2" x1="39.9" y1="57.3" x2="35.3" y2="57.3"/>
<line class="st2" x1="44.9" y1="46.8" x2="36.3" y2="46.8"/>
<line class="st2" x1="48.8" y1="42.9" x2="36.3" y2="42.9"/>
<line class="st2" x1="52.7" y1="39" x2="36.3" y2="39"/>
<line class="st2" x1="52.7" y1="35.1" x2="36.3" y2="35.1"/>
<line class="st2" x1="48.8" y1="31.2" x2="40.2" y2="31.2"/>
<path class="st3" d="M42.5,57.9l2.5-2.5c0,0-0.7-2,1.8-4.9l16-16.9c0,0,4-3.7,5.7-2s-2.1,5.9-2.1,5.9l-16.2,16c0,0-3.5,3.1-5.2,2"/>
<line class="st4" x1="69.9" y1="30.4" x2="68.4" y2="31.7"/>
<path class="st3" d="M61.6,47.3l6.2-6.2c0,0,1.2-0.9,0-2.1l-5-5.3"/>
<line class="st3" x1="54.5" y1="49.3" x2="51.1" y2="45.9"/>
</svg>
