<?xml version="1.0" encoding="utf-8"?>
<!-- Generator: Adobe Illustrator 22.0.0, SVG Export Plug-In . SVG Version: 6.00 Build 0)  -->
<svg version="1.1" id="_x31_" xmlns="http://www.w3.org/2000/svg" xmlns:xlink="http://www.w3.org/1999/xlink" x="0px" y="0px"
	 viewBox="0 0 90.7 89.2" style="enable-background:new 0 0 90.7 89.2;" xml:space="preserve">
<style type="text/css">
	.st0{fill:none;stroke:#FFFFFF;stroke-width:2;stroke-linecap:round;stroke-linejoin:round;stroke-miterlimit:10;}
	.st1{fill:none;stroke:#BD2234;stroke-width:2;stroke-linecap:round;stroke-linejoin:round;stroke-miterlimit:10;}
	.st2{fill:none;stroke:#FFFFFF;stroke-linecap:round;stroke-linejoin:round;stroke-miterlimit:10;}
	.st3{fill:none;stroke:#BD2234;stroke-linecap:round;stroke-linejoin:round;stroke-miterlimit:10;}
</style>
<path class="st0" d="M46,86.9c-23.5,0-42.6-19.1-42.6-42.6C3.4,20.7,22.5,1.6,46,1.6"/>
<path class="st1" d="M46.1,1.6c23.5,0,42.6,19.1,42.6,42.6S69.6,86.8,46.1,86.8"/>
<path class="st2" d="M61.4,25.2H33.6c0,0-2.9-0.1-2.9,2.9v31.1c0,0-0.6,2.8-3.4,2.8h27.5c0,0,3.5,0,3.5-3.5V28.4
	C58.3,28.4,58.1,25.2,61.4,25.2s2.8,2.8,2.8,2.8v2.8h-3.4"/>
<line class="st3" x1="47.1" y1="32.4" x2="52.4" y2="32.4"/>
<line class="st3" x1="47.1" y1="36.5" x2="52.4" y2="36.5"/>
<line class="st3" x1="35.9" y1="42.9" x2="52.4" y2="42.9"/>
<line class="st3" x1="35.9" y1="46.9" x2="52.4" y2="46.9"/>
<line class="st3" x1="35.9" y1="51" x2="47.4" y2="51"/>
<path class="st2" d="M40.4,36.1L40.4,36.1c-1.4,0-2.6-1.1-2.6-2.6V32c0-1.4,1.1-2.6,2.6-2.6l0,0c1.4,0,2.6,1.1,2.6,2.6v1.6
	C43,34.9,41.9,36.1,40.4,36.1z"/>
<polyline class="st2" points="36.3,39.5 36.3,37.7 38.7,35.3 "/>
<polyline class="st2" points="44.8,39.5 44.8,37.7 42.4,35.3 "/>
</svg>
