<?xml version="1.0" encoding="utf-8"?>
<!-- Generator: Adobe Illustrator 22.0.0, SVG Export Plug-In . SVG Version: 6.00 Build 0)  -->
<svg version="1.1" id="Layer_1" xmlns="http://www.w3.org/2000/svg" xmlns:xlink="http://www.w3.org/1999/xlink" x="0px" y="0px"
	 viewBox="0 0 90.7 92" style="enable-background:new 0 0 90.7 92;" xml:space="preserve">
<style type="text/css">
	.st0{fill:none;stroke:#FFFFFF;stroke-width:2;stroke-miterlimit:10;}
	.st1{fill:none;stroke:#BD2234;stroke-width:2;stroke-miterlimit:10;}
	.st2{display:none;}
	.st3{display:inline;fill:none;stroke:#FFFFFF;stroke-miterlimit:10;}
	.st4{display:inline;fill:#26A9E1;}
	.st5{fill:none;stroke:#FFFFFF;stroke-linejoin:round;stroke-miterlimit:10;}
</style>
<path class="st0" d="M46.5,89C22.9,89,3.9,69.9,3.9,46.4S23,3.8,46.5,3.8"/>
<path class="st1" d="M46.5,3.8c23.5,0,42.6,19.1,42.6,42.6S70.1,89,46.5,89"/>
<g id="Layer_7" class="st2">
	<path class="st3" d="M-382,149.4h-31.7c-1.5,0-2.7,1.2-2.7,2.7v31.8c0,1.5,1.2,2.7,2.7,2.7h31.7c1.5,0,2.8-1.2,2.8-2.7v-31.8
		C-379.3,150.6-380.5,149.4-382,149.4z"/>
	<path class="st4" d="M-410.9,163.3h5.5v17.8h-5.5V163.3z M-408.2,154.5c1.8,0,3.2,1.4,3.2,3.2s-1.4,3.2-3.2,3.2
		c-1.8,0-3.2-1.4-3.2-3.2C-411.4,155.9-409.9,154.5-408.2,154.5"/>
	<path class="st4" d="M-402,163.3h5.3v2.4h0.1c0.7-1.4,2.5-2.9,5.2-2.9c5.6,0,6.6,3.7,6.6,8.5v9.7h-5.5v-8.6c0-2.1,0-4.7-2.9-4.7
		s-3.3,2.2-3.3,4.6v8.8h-5.5L-402,163.3L-402,163.3z"/>
</g>
<path class="st5" d="M36.9,19.7v7.2c0,0,0,3.2,3.2,3.2h6c0,0,3,0,3,3v7"/>
<path class="st5" d="M69,64.3H27.2c-1.1,0-2-0.9-2-2V42.2c0-1.1,0.9-2,2-2H69c1.1,0,2,0.9,2,2v20.1C71,63.4,70.1,64.3,69,64.3z"/>
<rect x="30.9" y="47.4" class="st5" width="0.4" height="0.4"/>
<rect x="35.7" y="47.4" class="st5" width="0.4" height="0.4"/>
<rect x="40.5" y="47.4" class="st5" width="0.4" height="0.4"/>
<rect x="45.3" y="47.4" class="st5" width="0.4" height="0.4"/>
<rect x="50.1" y="47.4" class="st5" width="0.4" height="0.4"/>
<rect x="55" y="47.4" class="st5" width="0.4" height="0.4"/>
<rect x="59.8" y="47.4" class="st5" width="0.4" height="0.4"/>
<rect x="64.6" y="47.4" class="st5" width="0.4" height="0.4"/>
<rect x="30.9" y="52.2" class="st5" width="0.4" height="0.4"/>
<rect x="35.7" y="52.2" class="st5" width="0.4" height="0.4"/>
<rect x="40.5" y="52.2" class="st5" width="0.4" height="0.4"/>
<rect x="45.3" y="52.2" class="st5" width="0.4" height="0.4"/>
<rect x="50.1" y="52.2" class="st5" width="0.4" height="0.4"/>
<rect x="55" y="52.2" class="st5" width="0.4" height="0.4"/>
<rect x="59.8" y="52.2" class="st5" width="0.4" height="0.4"/>
<rect x="64.6" y="52.2" class="st5" width="0.4" height="0.4"/>
<rect x="30.9" y="57" class="st5" width="0.4" height="0.4"/>
<rect x="35.7" y="57" class="st5" width="0.4" height="0.4"/>
<rect x="59.8" y="57" class="st5" width="0.4" height="0.4"/>
<rect x="64.6" y="57" class="st5" width="0.4" height="0.4"/>
<line class="st5" x1="40.1" y1="57" x2="56.2" y2="57"/>
</svg>
