<?xml version="1.0" encoding="utf-8"?>
<!-- Generator: Adobe Illustrator 22.0.0, SVG Export Plug-In . SVG Version: 6.00 Build 0)  -->
<svg version="1.1" xmlns="http://www.w3.org/2000/svg" xmlns:xlink="http://www.w3.org/1999/xlink" x="0px" y="0px"
	 viewBox="0 0 88.6 57.2" style="enable-background:new 0 0 88.6 57.2;" xml:space="preserve">
<style type="text/css">
	.st0{fill:#29DFAE;}
</style>
<g id="bar">
	<g>
		<path class="st0" d="M26.3,47.1h4.5c1.7,0,2.8,1.1,2.8,2.6c0,1.3-0.8,2.1-1.8,2.3c1.1,0.2,1.9,1.3,1.9,2.5c0,1.6-1.1,2.7-2.9,2.7
			h-4.6V47.1z M30.5,51.5c1.1,0,1.7-0.7,1.7-1.6c0-0.9-0.6-1.6-1.7-1.6h-3v3.3H30.5z M30.6,56.1c1.2,0,1.9-0.7,1.9-1.7
			c0-0.9-0.6-1.7-1.9-1.7h-3.1v3.5H30.6z"/>
		<path class="st0" d="M54,55h-5l-0.9,2.2h-1.4l4-10.1h1.5l4,10.1h-1.4L54,55z M49.4,53.9h4.2l-2.1-5.4L49.4,53.9z"/>
		<path class="st0" d="M72.8,53.2h-2v4h-1.2V47.1h4c1.8,0,3.1,1.2,3.1,3c0,1.8-1.2,2.8-2.6,2.9l2.7,4.1h-1.5L72.8,53.2z M73.5,48.3
			h-2.6v3.9h2.6c1.2,0,2-0.8,2-1.9C75.5,49,74.7,48.3,73.5,48.3z"/>
	</g>
</g>
<g id="writers_x27_">
	<g id="Layer_6">
		<g>
			<path class="st0" d="M45.9,11.7c0.3-0.9,0.5-1.7,0.6-2.4c0.1-0.7,0.1-1.3,0.1-1.8c0-0.5-0.1-0.9-0.2-1.2C46.2,6,46,5.6,45.6,5.3
				c-0.4-0.3-0.8-0.5-1.3-0.6c-0.3,0-0.5,0-0.8,0.1C43.4,4.8,43.2,4.9,43,5c-0.1,0.1-0.2,0.2-0.2,0.3c0,0.1,0,0.3,0.1,0.4
				c0.7,0.8,1.1,1.7,1.3,2.7c0.2,1,0.1,2.1-0.3,3.6c-0.4,1.4-1,3.2-2,5.2c-0.9,2-2.2,4.5-3.7,7.5c-1.2,2.4-2.3,4.5-3.3,6.5
				c-1,2-1.7,3.7-2.2,5.2c-0.2-0.9-0.3-1.9-0.4-3.2c-0.1-1.2-0.1-2.7,0-4.4c0.1-1.7,0.3-3.6,0.7-5.7c0.4-2.1,0.9-4.5,1.6-7.1
				c0.1-0.4,0.1-0.8,0.1-1.2c-0.1-0.3-0.2-0.6-0.4-0.9c-0.2-0.3-0.6-0.5-1.2-0.5c-0.2,0-0.3,0-0.4,0.1s-0.2,0.2-0.2,0.4
				c0,0,0,0,0,0.1c0,0,0,0.1,0,0.1c-0.5,1.3-1.2,2.8-2,4.6c-0.8,1.7-1.8,3.8-3,6.1c-0.4,0.7-0.7,1.4-1,2.1c-0.3,0.7-0.6,1.3-0.9,1.9
				c0.5-2.9,0.8-5.4,0.8-7.4c0-2-0.1-3.7-0.2-5c-0.2-1.5-0.6-2.7-1-3.7c-0.5-1.1-1-1.9-1.7-2.6c-0.6-0.7-1.4-1.3-2.2-1.7
				c0.4-1.4,0.7-2.6,0.7-3.7c0-1.1,0-1.8-0.1-2.3c0-0.2-0.1-0.4-0.2-0.6s-0.1-0.4-0.2-0.6c-0.2-0.3-0.4-0.5-0.7-0.7
				C20.5,0.2,20.3,0.1,20,0C19.7,0,19.4,0,19.1,0c-0.3,0-0.5,0.1-0.8,0.2c-0.2,0.1-0.4,0.2-0.5,0.4c-0.1,0.2,0,0.4,0.1,0.6
				c0.4,0.5,0.6,1.3,0.8,2.4c0.1,1.1,0.1,2.3-0.2,3.6c-1.7-0.3-3.2-0.4-4.6-0.4c-1.4,0-2.6,0.1-3.6,0.2C9.1,7.2,8.1,7.4,7.2,7.7
				c-1.1,0.3-2,0.6-2.8,1c-0.8,0.4-1.4,0.8-2,1.2c-0.5,0.4-1,0.9-1.3,1.4c-0.3,0.5-0.6,0.9-0.7,1.4c-0.4,1-0.5,2.1-0.3,3.2
				c0.3,1.2,1,2.1,2,2.7c1,0.6,2.2,0.9,3.6,0.9c1.1,0,2.1-0.1,3-0.3c0.9-0.2,1.7-0.4,2.3-0.6c0.7-0.2,1.4-0.5,2-0.9
				c2-1.1,3.5-2.2,4.7-3.5c1.2-1.3,2.1-2.6,2.7-3.9c0.6,0.5,1.1,1.1,1.5,1.7c0.4,0.6,0.7,1.2,0.9,1.7c0.5,1.2,0.7,2.5,0.9,4
				c0.1,1.5,0.1,3,0,4.6c-0.1,1.6-0.3,3.2-0.6,4.8c-0.3,1.6-0.6,3.1-1,4.5c-0.3,1.4-0.7,2.7-1,3.8c-0.4,1.1-0.6,2-0.8,2.6
				c-0.2,0.5-0.1,0.9,0.2,1.3c0.3,0.4,0.6,0.6,1.1,0.7c0.3,0,0.5,0,0.7,0s0.3-0.1,0.4-0.3c0.1-0.1,0.2-0.2,0.2-0.4
				c0.2-0.5,0.3-1.1,0.5-1.6c0.2-0.5,0.3-1.1,0.5-1.6c0.9-2.4,1.9-4.8,3.1-7.2c1.1-2.4,2.3-4.7,3.4-7c-0.3,1.6-0.5,3.3-0.7,5
				s-0.3,3.3-0.3,4.9c0,1.6,0,3,0.2,4.3c0.1,1.3,0.4,2.3,0.8,3.1c0.1,0.2,0.3,0.4,0.5,0.6c0.2,0.1,0.4,0.3,0.7,0.3
				c0.3,0.1,0.5,0.1,0.7,0.1c0.2,0,0.4,0,0.6,0c0.2,0,0.4,0,0.5-0.1c0.3-0.1,0.5-0.2,0.6-0.4c0.1-0.2,0.1-0.4,0.1-0.5
				c0-0.5,0.1-1,0.2-1.4c0.1-0.2,0.1-0.4,0.2-0.6c0.7-2,1.5-4,2.4-6c0.9-2,1.8-4,2.8-5.9c0.9-1.9,1.9-3.8,2.8-5.6
				c0.9-1.8,1.8-3.4,2.5-5C45.2,13.7,45.6,12.7,45.9,11.7z M16.5,12.3c-0.5,0.7-1.1,1.4-1.7,2c-0.7,0.6-1.4,1.2-2.2,1.7
				c-0.8,0.5-1.7,0.9-2.6,1.3C9,17.6,8,17.9,7.1,18c-0.6,0.1-1.2,0.1-1.9,0.1c-0.6,0-1.2-0.1-1.7-0.3c-0.5-0.2-1-0.4-1.3-0.8
				c-0.4-0.3-0.6-0.8-0.7-1.3c-0.1-0.6-0.2-1.2-0.1-1.7c0.1-0.5,0.3-1,0.5-1.4c0.2-0.4,0.5-0.8,0.9-1.1c0.4-0.3,0.7-0.6,1.1-0.9
				c0.9-0.6,2-1,3.2-1.4c1-0.3,2.2-0.6,3.4-0.7c1-0.1,2.2-0.2,3.5-0.2c1.3,0,2.7,0.2,4.1,0.6C17.7,10.1,17.2,11.2,16.5,12.3z"/>
			<path class="st0" d="M55.7,21.9c0.2-0.1,0.4-0.3,0.4-0.5c0-0.2,0-0.4-0.3-0.6s-0.5-0.3-0.8-0.3c-0.3,0-0.6,0-0.9,0.1
				s-0.4,0.3-0.4,0.5c0,0.2,0,0.4,0.3,0.6c0.2,0.2,0.5,0.3,0.8,0.3C55.2,22,55.5,22,55.7,21.9z"/>
			<path class="st0" d="M88.6,19.2l-1.8,0.2c-0.2,1.4-0.7,3.4-1.1,4.6l1.1-0.1C87.3,22.9,88.1,20.8,88.6,19.2z"/>
			<path class="st0" d="M86.1,31.9c-0.6-0.5-1.3-0.8-1.9-0.9c-0.1-0.3-0.2-0.5-0.3-0.8c-0.1-0.3-0.2-0.5-0.3-0.7l-0.3-0.6
				c-0.2-0.5-0.5-0.9-0.6-1.3c-0.2-0.4-0.3-0.8-0.4-1.1c-0.1-0.4-0.2-0.7-0.2-0.9c0-0.5,0-0.9,0.1-1.2c0.1-0.2,0.3-0.4,0.4-0.6
				c0.2-0.1,0.3-0.2,0.4-0.3c0.1-0.1,0.2-0.3,0.1-0.5c-0.1-0.3-0.3-0.5-0.5-0.6c-0.2-0.1-0.5-0.2-0.8-0.2c-0.3,0-0.7,0-1,0.1
				c-0.4,0.1-0.6,0.2-0.9,0.4c-0.2,0.2-0.4,0.4-0.6,0.7s-0.2,0.5-0.3,0.8C79,24.4,79,24.8,79,25.1c0,0.6,0.1,1.2,0.3,1.8
				c0,0.1-0.1,0.2-0.1,0.3c-0.2,0.4-0.4,0.8-0.6,1.2c-0.2,0.4-0.5,0.7-0.7,1c-0.3,0.3-0.5,0.4-0.8,0.3c-0.4-0.1-0.7-0.5-0.8-1.3
				c-0.1-0.8,0.1-1.9,0.5-3.2c0.1-0.3,0.1-0.6,0-0.9c-0.1-0.2-0.1-0.5-0.3-0.6c-0.1-0.2-0.3-0.3-0.5-0.5c-0.2-0.1-0.4-0.2-0.6-0.3
				c-0.3-0.2-0.5-0.3-0.7-0.4c-0.2-0.1-0.3-0.2-0.4-0.2c-0.6-0.2-1-0.5-1.3-0.8c-0.2-0.3-0.4-0.5-0.5-0.7c0-0.1-0.1-0.2-0.1-0.3
				c0-0.1-0.1-0.2-0.1-0.4c-0.1-0.1-0.1-0.3-0.2-0.4c-0.1-0.1-0.2-0.2-0.4-0.2c-0.1,0-0.2,0-0.3,0c-0.1,0-0.2,0-0.2,0.1l-0.2,0.1
				c-0.1,0.1-0.3,0.3-0.4,0.6c-0.1,0.3-0.2,0.7-0.2,1s0.1,0.7,0.3,1c0.2,0.3,0.6,0.5,1.2,0.6c0,0.7,0,1.3-0.1,2
				c-0.1,0.7-0.2,1.2-0.3,1.6c-0.1,0.2-0.1,0.4-0.2,0.6c-0.2,0.5-0.5,1-0.7,1.5c-0.3,0.5-0.6,1-0.9,1.4c-0.3,0.4-0.6,0.6-0.8,0.7
				c-0.5,0.1-0.9,0-1.2-0.3c-0.3-0.3-0.5-0.6-0.7-1c-0.2-0.4-0.3-0.9-0.3-1.3s-0.1-0.9-0.1-1.2c0.6,0,1.1-0.2,1.5-0.5
				c0.5-0.3,0.9-0.7,1.2-1.2c0.3-0.5,0.5-0.9,0.7-1.5c0.1-0.5,0.2-1,0.1-1.4s-0.2-0.8-0.5-1.1c-0.3-0.3-0.7-0.5-1.3-0.5
				c-0.4,0-0.8,0-1.2,0.2c-0.4,0.1-0.7,0.3-0.9,0.6c-0.3,0.2-0.5,0.5-0.7,0.8c-0.2,0.3-0.4,0.6-0.5,1c-0.4,0.8-0.6,1.7-0.7,2.7
				c-0.1,0.4-0.1,0.8-0.1,1.2c0,0.1-0.1,0.2-0.1,0.2c-0.2,0.7-0.5,1.3-0.8,2c-0.3,0.7-0.6,1.3-0.9,1.8c-0.3,0.5-0.6,0.8-0.9,0.8
				c-0.4,0-0.6-0.2-0.8-0.6c-0.2-0.4-0.3-0.9-0.3-1.6c-0.1-0.7-0.1-1.5,0-2.3c0.1-0.9,0.1-1.8,0.3-2.8c0.1-1,0.3-2,0.4-3
				c0.2-1,0.3-2,0.5-2.9c2.3-0.4,4.4-0.9,6.4-1.4c2-0.5,3.6-0.9,5.1-1.2c1.4-0.3,2.6-0.5,3.4-0.5c0.8,0,1.3,0.3,1.3,0.8
				c0,0.2,0.1,0.4,0.2,0.5c0.1,0.1,0.2,0.2,0.4,0.2c0.1,0.1,0.3,0.1,0.5,0.1c0.4,0,0.8,0,1.1-0.2c0.3-0.1,0.6-0.3,0.8-0.5
				c0.2-0.2,0.3-0.5,0.3-0.7c0-0.2,0-0.4-0.1-0.6c-0.1-0.2-0.2-0.4-0.3-0.6c-0.3-0.4-0.8-0.6-1.4-0.8c-0.5-0.2-1.2-0.3-2-0.3
				c-0.8,0-1.8,0.1-3,0.4c-0.8,0.2-1.7,0.5-2.7,0.8c-1,0.3-2.1,0.6-3.1,0.9c-1.1,0.3-2.2,0.6-3.3,0.9c-1.1,0.3-2.2,0.6-3.3,0.8
				c0.2-0.8,0.3-1.6,0.5-2.2c0.1-0.6,0.3-1.1,0.4-1.5c0.1-0.2,0.1-0.4,0-0.6c-0.1-0.2-0.2-0.4-0.3-0.5c-0.3-0.3-0.6-0.5-1-0.5
				c-0.3-0.1-0.6-0.1-0.9-0.1c-0.3,0-0.5,0.1-0.6,0.4c-0.2,0.7-0.5,1.6-0.7,2.5c-0.2,0.9-0.4,1.9-0.6,3c-0.4,0-0.7,0.1-1,0.1
				c-0.3,0-0.7,0-1,0c-1,0-1.9-0.1-2.6-0.3c-0.7-0.2-1.2-0.5-1.7-0.8c-0.4-0.3-0.7-0.7-0.9-1.2c-0.2-0.4-0.2-0.9-0.2-1.3
				c0-0.2,0-0.3-0.2-0.4c-0.1-0.1-0.3-0.2-0.5-0.2h-0.3c-0.4,0-0.7,0.1-0.9,0.2c-0.3,0.1-0.5,0.3-0.6,0.6c-0.2,0.2-0.2,0.5-0.3,0.8
				c0,0.3,0,0.6,0.1,0.9c0.2,0.4,0.5,0.8,0.9,1.3c0.4,0.4,1,0.8,1.7,1.1c0.7,0.3,1.7,0.5,2.8,0.7c1.1,0.1,2.5,0.1,4.2-0.2
				c-0.2,1.6-0.4,3.1-0.5,4.7c-0.1,1.3-0.1,2.5,0,3.6c0,0.1,0,0.1-0.1,0.2c-0.2,0.6-0.4,1.3-0.7,1.8c-0.2,0.6-0.5,1.1-0.8,1.5
				c-0.3,0.4-0.5,0.6-0.8,0.5c-0.2,0-0.3-0.2-0.4-0.5c-0.1-0.3-0.1-0.7,0-1.2c0-0.5,0.1-1,0.2-1.6c0.1-0.6,0.2-1.2,0.3-1.8
				c0.1-0.6,0.2-1.1,0.4-1.6c0.1-0.5,0.2-0.9,0.3-1.2c0-0.2,0-0.3,0-0.5c-0.1-0.2-0.2-0.3-0.3-0.4c-0.3-0.2-0.7-0.4-1.1-0.5
				c-0.4-0.1-0.8-0.1-1-0.1c-0.3,0-0.5,0.1-0.6,0.4c-0.4,1.2-0.6,2.4-0.8,3.5c-0.1,0.2-0.2,0.6-0.4,1c-0.2,0.4-0.4,0.8-0.6,1.2
				c-0.2,0.4-0.5,0.7-0.7,1c-0.3,0.3-0.5,0.4-0.8,0.3c-0.4-0.1-0.7-0.5-0.8-1.3c-0.1-0.8,0.1-1.9,0.5-3.2c0.1-0.3,0.1-0.6,0-0.9
				c-0.1-0.2-0.1-0.5-0.3-0.6c-0.1-0.2-0.3-0.3-0.5-0.5c-0.2-0.1-0.4-0.2-0.6-0.3c-0.3-0.2-0.5-0.3-0.7-0.4
				c-0.2-0.1-0.3-0.2-0.4-0.2c-0.6-0.2-1-0.5-1.3-0.8c-0.2-0.3-0.4-0.5-0.5-0.7c0-0.1-0.1-0.2-0.1-0.3c0-0.1-0.1-0.2-0.1-0.4
				c-0.1-0.1-0.1-0.3-0.2-0.4c-0.1-0.1-0.2-0.2-0.4-0.2c-0.1,0-0.2,0-0.3,0c-0.1,0-0.2,0-0.2,0.1l-0.2,0.1c-0.1,0.1-0.3,0.3-0.4,0.6
				c-0.1,0.3-0.2,0.7-0.2,1s0.1,0.7,0.3,1c0.2,0.3,0.6,0.5,1.2,0.6c0,0.7,0,1.3-0.1,2c-0.1,0.7-0.2,1.3-0.3,1.7c0,0.1,0,0.2,0,0.2
				c0.1,0.1,0.1,0.1,0.2,0.1h0.2c0.2,0,0.4-0.2,0.5-0.4c0.1-0.3,0.3-0.8,0.4-1.4c0.2-0.6,0.2-1.3,0.2-2.1c0.2,0,0.3,0,0.5,0
				c0.2,0,0.3,0,0.5,0c-0.3,1.1-0.5,2.2-0.6,3.2c-0.1,1,0,1.9,0.2,2.6c0.2,0.7,0.5,1.3,1,1.8c0.5,0.4,1,0.7,1.8,0.7
				c0.6,0,1.2-0.2,1.6-0.5c0.5-0.4,0.9-0.8,1.2-1.4c0.1-0.1,0.1-0.2,0.2-0.3c0,0.4,0,0.8,0.1,1.1c0.1,0.9,0.4,1.7,0.8,2.2
				c0.4,0.5,1,0.8,1.7,0.8c0.4,0,0.8-0.1,1.2-0.4c0.4-0.3,0.7-0.6,1-1c0.3-0.4,0.6-0.9,0.8-1.4c0.1-0.3,0.2-0.5,0.3-0.8
				c0.1,0.7,0.3,1.2,0.4,1.6c0.3,0.7,0.6,1.3,1,1.7c0.4,0.4,0.8,0.6,1.2,0.7c0.4,0,0.8-0.1,1.2-0.4c0.4-0.3,0.7-0.7,1-1.1
				c0.3-0.5,0.6-1,0.8-1.5c0.2-0.4,0.4-0.9,0.5-1.3c0.1,0.2,0.1,0.4,0.2,0.6c0.2,0.5,0.4,0.9,0.7,1.2c0.3,0.3,0.5,0.6,0.8,0.8
				c0.7,0.5,1.5,0.7,2.4,0.7c0.6,0,1.2-0.3,1.7-0.8c0.5-0.5,0.9-1.1,1.2-1.8c0.3-0.7,0.6-1.3,0.8-2c0.2-0.6,0.3-1.1,0.4-1.4
				c0,0,0-0.1,0-0.1c0,0,0,0,0,0c0.1-0.3,0.3-0.8,0.4-1.4c0.2-0.6,0.2-1.3,0.2-2.1c0.2,0,0.3,0,0.5,0c0.2,0,0.3,0,0.5,0
				c-0.3,1.1-0.5,2.2-0.6,3.2c-0.1,1,0,1.9,0.2,2.6c0.2,0.7,0.5,1.3,1,1.8c0.5,0.4,1,0.7,1.8,0.7c0.6,0,1.2-0.2,1.6-0.5
				c0.5-0.4,0.9-0.8,1.2-1.4c0.3-0.4,0.5-0.8,0.7-1.3c0,0,0,0.1,0,0.1c0.1,0.3,0.3,0.7,0.5,1c0.2,0.4,0.4,0.8,0.7,1.2
				c0.1,0.1,0.2,0.3,0.2,0.4c-0.9,0.2-1.5,0.6-2,1.2c-0.5,0.6-0.7,1.2-0.8,1.8c0,0.6,0.1,1.1,0.3,1.4c0.3,0.3,0.6,0.6,0.9,0.8
				c0.4,0.2,0.8,0.3,1.3,0.4c0.6,0,1.2-0.1,1.7-0.4c0.5-0.3,0.9-0.7,1.3-1.3c0.1-0.2,0.2-0.4,0.3-0.6c0.1-0.2,0.1-0.4,0.2-0.6
				c0-0.2,0.1-0.5,0.1-0.7c0,0,0-0.1,0-0.3c0.3,0.1,0.5,0.2,0.7,0.4c0.9,0.7,1.4,2,1.4,3.8c0,1.2-0.3,2.2-0.9,2.7
				c-0.8,0.8-2.1,0.9-3,0.8c-0.7,0-1.6-0.2-2.4-0.5c-1-0.4-2.9-1.1-4.8-1.8l-0.7-0.3c-2.2-0.9-4.5-1.9-6.7-2.4
				c-2.1-0.5-4.1-0.4-6,0.2c-2,0.7-3.3,1.8-3.6,3.2c-0.5,1.9,1.2,3.8,4,6.7l0.2-0.2c-2.4-2.4-3.1-4.7-2.8-6.1
				c0.3-1.1,1.6-1.8,2.6-2.1c1.6-0.5,3.4-0.6,5.2-0.2c2.1,0.5,4.3,1.4,6.5,2.3l0.7,0.3c1.9,0.8,3.8,1.5,4.9,1.9
				c1,0.3,1.9,0.6,2.8,0.6c1.8,0.1,3.2-0.3,4.2-1.3c0.9-0.9,1.4-2.2,1.4-3.8C88.1,34.6,87.4,33,86.1,31.9z M67,24.1
				c0.2-0.4,0.3-0.8,0.5-1c0.1-0.2,0.3-0.3,0.4-0.4c0.1-0.1,0.2-0.1,0.2-0.1c0.1,0,0.1,0,0.2,0c0.1,0.1,0.1,0.2,0.2,0.3
				c0,0.1,0,0.3,0,0.6c0,0.2-0.2,0.5-0.4,0.9c-0.2,0.4-0.5,0.7-0.8,1c-0.3,0.2-0.6,0.4-0.8,0.5C66.6,25.1,66.8,24.5,67,24.1z
				 M81.7,33.9c-0.1,0.4-0.3,0.7-0.5,1C81,34.9,80.9,35,80.7,35c-0.1,0-0.2,0.1-0.4,0.1c-0.1,0-0.3-0.1-0.4-0.2
				c-0.1-0.1-0.2-0.2-0.2-0.3c0-0.1-0.1-0.2-0.1-0.4s0-0.3,0.1-0.5c0.1-0.3,0.3-0.5,0.7-0.8c0.4-0.2,0.8-0.4,1.3-0.5
				C81.8,33,81.8,33.4,81.7,33.9z"/>
		</g>
	</g>
</g>
</svg>
