<?xml version="1.0" encoding="utf-8"?>
<!-- Generator: Adobe Illustrator 22.0.0, SVG Export Plug-In . SVG Version: 6.00 Build 0)  -->
<svg version="1.1" id="Layer_3" xmlns="http://www.w3.org/2000/svg" xmlns:xlink="http://www.w3.org/1999/xlink" x="0px" y="0px"
	 viewBox="0 0 181.1 130.5" style="enable-background:new 0 0 181.1 130.5;" xml:space="preserve">
<style type="text/css">
	.st0{fill:none;stroke:#7554D1;stroke-width:2;stroke-linecap:round;stroke-linejoin:round;stroke-miterlimit:10;}
	.st1{fill:none;stroke:#FF3568;stroke-width:2;stroke-linecap:round;stroke-linejoin:round;stroke-miterlimit:10;}
	.st2{fill:#7554D1;}
</style>
<polyline class="st0" points="137.8,68.8 137.8,122.4 73.8,122.4 73.8,54.1 "/>
<polyline class="st0" points="79.8,129.5 145.1,129.5 145.1,68.8 "/>
<polyline class="st0" points="112.5,30.5 91.9,30.5 73.7,48.7 92,48.7 91.9,30.5 "/>
<circle class="st0" cx="140.2" cy="39.6" r="22.9"/>
<ellipse class="st1" cx="140.4" cy="32.6" rx="3.8" ry="5.1"/>
<path class="st1" d="M131.4,49.2v-4.1c0,0,0.4-4.4,4.4-4.4s8.4,0,8.4,0s4.4,0,4.4,4.1v4.5"/>
<line class="st0" x1="139.2" y1="1" x2="140.9" y2="8.6"/>
<line class="st0" x1="155.6" y1="4.1" x2="154.5" y2="8.3"/>
<line class="st0" x1="180.1" y1="41.9" x2="172.5" y2="40.2"/>
<line class="st0" x1="177" y1="25.5" x2="172.8" y2="26.6"/>
<line class="st0" x1="171.5" y1="9.8" x2="166.4" y2="14.9"/>
<circle class="st1" cx="42.1" cy="41" r="4.8"/>
<circle class="st1" cx="42.1" cy="114.9" r="4.8"/>
<circle class="st1" cx="5.8" cy="78" r="4.8"/>
<circle class="st2" cx="65.1" cy="78" r="1.6"/>
<circle class="st2" cx="65.1" cy="68.7" r="1.6"/>
<circle class="st2" cx="56.5" cy="66.9" r="1.6"/>
<circle class="st2" cx="48.5" cy="62" r="1.6"/>
<circle class="st2" cx="43.6" cy="54.6" r="1.6"/>
<circle class="st2" cx="65.1" cy="87.2" r="1.6"/>
<circle class="st2" cx="56.5" cy="89.1" r="1.6"/>
<circle class="st2" cx="48.5" cy="94" r="1.6"/>
<circle class="st2" cx="43.6" cy="101.4" r="1.6"/>
<circle class="st2" cx="56.5" cy="78" r="1.6"/>
<circle class="st2" cx="47.9" cy="78" r="1.6"/>
<circle class="st2" cx="39.3" cy="78" r="1.6"/>
<circle class="st2" cx="30.6" cy="78" r="1.6"/>
<circle class="st2" cx="22" cy="78" r="1.6"/>
<line class="st1" x1="86.8" y1="68.7" x2="111.8" y2="68.7"/>
<line class="st1" x1="86.8" y1="78" x2="93.1" y2="78"/>
<line class="st0" x1="100" y1="78" x2="125.2" y2="78"/>
<line class="st1" x1="86.8" y1="87.2" x2="125.2" y2="87.2"/>
<line class="st0" x1="86.8" y1="95.6" x2="112.5" y2="95.6"/>
<line class="st0" x1="118.8" y1="95.6" x2="125.2" y2="95.6"/>
</svg>
