<?xml version="1.0" encoding="utf-8"?>
<!-- Generator: Adobe Illustrator 22.0.0, SVG Export Plug-In . SVG Version: 6.00 Build 0)  -->
<svg version="1.1" id="Layer_3" xmlns="http://www.w3.org/2000/svg" xmlns:xlink="http://www.w3.org/1999/xlink" x="0px" y="0px"
	 viewBox="0 0 120.2 124.7" style="enable-background:new 0 0 120.2 124.7;" xml:space="preserve">
<style type="text/css">
	.st0{fill:none;stroke:#29DFAE;stroke-width:2;stroke-linecap:round;stroke-linejoin:round;stroke-miterlimit:10;}
	.st1{fill:none;stroke:#00D9FF;stroke-width:2;stroke-linecap:round;stroke-linejoin:round;stroke-miterlimit:10;}
</style>
<polyline class="st0" points="28.2,55.4 28.2,123.7 92.2,123.7 92.2,70.1 92.2,31.9 46.3,31.9 28.1,50.1 46.4,50 46.3,31.9 "/>
<line class="st1" x1="41.2" y1="70.1" x2="66.2" y2="70.1"/>
<line class="st1" x1="41.2" y1="79.3" x2="47.5" y2="79.3"/>
<line class="st0" x1="54.4" y1="79.3" x2="79.6" y2="79.3"/>
<line class="st1" x1="41.2" y1="88.5" x2="79.6" y2="88.5"/>
<line class="st0" x1="41.2" y1="96.9" x2="66.9" y2="96.9"/>
<line class="st0" x1="73.2" y1="96.9" x2="79.6" y2="96.9"/>
<polyline class="st0" points="97.6,64.6 119.2,64.6 119.2,110 97.6,110 "/>
<line class="st0" x1="97.6" y1="101.2" x2="105.1" y2="101.2"/>
<line class="st0" x1="108.4" y1="101.2" x2="111.9" y2="101.2"/>
<line class="st0" x1="97.6" y1="83.2" x2="105.1" y2="83.2"/>
<line class="st0" x1="108.4" y1="83.2" x2="111.9" y2="83.2"/>
<line class="st0" x1="97.6" y1="92" x2="111.9" y2="92"/>
<line class="st0" x1="8" y1="83.2" x2="22.1" y2="83.2"/>
<line class="st0" x1="8" y1="101.2" x2="22.1" y2="101.2"/>
<line class="st0" x1="8" y1="92" x2="12.3" y2="92"/>
<line class="st0" x1="15.6" y1="92" x2="22.1" y2="92"/>
<polyline class="st0" points="22.1,64.6 10.2,64.6 1,73.8 10.2,73.8 10.2,64.6 "/>
<polyline class="st0" points="1,78.4 1,110 22.1,110 "/>
<line class="st1" x1="96" y1="10.3" x2="92.2" y2="17"/>
<line class="st1" x1="80.1" y1="7" x2="79" y2="11.2"/>
<line class="st1" x1="106.2" y1="23.3" x2="104" y2="25.6"/>
<line class="st1" x1="33.2" y1="10.3" x2="37" y2="17"/>
<line class="st1" x1="49.2" y1="7" x2="50.2" y2="11.2"/>
<line class="st1" x1="23" y1="23.3" x2="25.2" y2="25.6"/>
<line class="st1" x1="64.6" y1="1" x2="64.6" y2="8.2"/>
</svg>
