<?xml version="1.0" encoding="utf-8"?>
<!-- Generator: Adobe Illustrator 22.0.0, SVG Export Plug-In . SVG Version: 6.00 Build 0)  -->
<svg version="1.1" xmlns="http://www.w3.org/2000/svg" xmlns:xlink="http://www.w3.org/1999/xlink" x="0px" y="0px"
	 viewBox="0 0 126.6 125.7" style="enable-background:new 0 0 126.6 125.7;" xml:space="preserve">
<style type="text/css">
	.st0{fill:none;stroke:#FF3568;stroke-width:2;stroke-linecap:round;stroke-linejoin:round;stroke-miterlimit:10;}
	.st1{fill:none;stroke:#00D9FF;stroke-width:2;stroke-linecap:round;stroke-linejoin:round;stroke-miterlimit:10;}
	.st2{display:none;fill:none;stroke:#00D9FF;stroke-width:2;stroke-linecap:round;stroke-miterlimit:10;}
</style>
<g id="Layer_3">
	<line class="st0" x1="30.6" y1="124.7" x2="86.1" y2="124.7"/>
	<path class="st0" d="M115.3,57.7v45.9c0,5.3-4.3,9.6-9.6,9.6h-95c-5.3,0-9.6-4.3-9.6-9.6V36.2c0-5.3,4.3-9.6,9.6-9.6h4.3"/>
	<line class="st0" x1="115.3" y1="94.2" x2="1" y2="94.2"/>
	<polyline class="st0" points="19.8,88.9 19.8,27.4 39,8.1 39,8.1 64.8,8.1 	"/>
	<polyline class="st0" points="91.5,8.1 96.3,8.1 96.3,48.5 	"/>
	<line class="st0" x1="96.3" y1="76.1" x2="96.3" y2="88.9"/>
	<line class="st0" x1="48.9" y1="103.2" x2="67.7" y2="103.2"/>
	<circle class="st1" cx="60.1" cy="27.5" r="4.1"/>
	<circle class="st1" cx="78" cy="42" r="5.3"/>
	<line class="st1" x1="82.5" y1="4.1" x2="85.7" y2="1"/>
	<line class="st1" x1="85.7" y1="15.6" x2="82.5" y2="12.4"/>
	<line class="st1" x1="71.1" y1="15.6" x2="74.3" y2="12.4"/>
	<line class="st1" x1="74.3" y1="4.1" x2="71.1" y2="1"/>
	<path class="st0" d="M101.5,27.5h5.6c0,0,3.2,0.6,5.6,2.7"/>
	<line class="st0" x1="37" y1="56" x2="45.6" y2="56"/>
	<line class="st0" x1="51.9" y1="56" x2="64.8" y2="56"/>
	<line class="st0" x1="37" y1="65.6" x2="60.1" y2="65.6"/>
	<line class="st0" x1="65.8" y1="65.6" x2="74.3" y2="65.6"/>
	<line class="st0" x1="37" y1="75.2" x2="45.6" y2="75.2"/>
	<line class="st0" x1="51.9" y1="75.2" x2="78" y2="75.2"/>
	<path class="st2" d="M127.6,37.1L92.9,71.8l-10.4,3.7c-0.2,0.1-0.3-0.1-0.3-0.2l3.5-10.5L120.6,30L127.6,37.1z"/>
	<line class="st2" x1="87.8" y1="73.4" x2="84.3" y2="69.9"/>
	<polyline class="st0" points="21,27.2 39,27.2 39,8.1 	"/>
	<line class="st2" x1="92.9" y1="71.8" x2="85.8" y2="64.8"/>
	<line class="st2" x1="93.5" y1="64.2" x2="119.8" y2="37.9"/>
</g>
<g id="Layer_2">
	<path class="st1" d="M82,75.6l3.9-3.9c0,0-1.1-3.3,2.8-7.8l25.5-26.9c0,0,6.4-5.9,9.1-3.1s-3.4,9.4-3.4,9.4L94.3,68.5
		c0,0-5.5,5-8.3,3.1"/>
	<line class="st1" x1="125.6" y1="31.6" x2="123.3" y2="33.8"/>
	<path class="st1" d="M118.3,52.7l3.9-4c0,0,1.9-1.5,0-3.3l-8-8.5"/>
	<line class="st1" x1="101" y1="61.8" x2="95.7" y2="56.5"/>
</g>
</svg>
