<?xml version="1.0" encoding="utf-8"?>
<!-- Generator: Adobe Illustrator 22.0.0, SVG Export Plug-In . SVG Version: 6.00 Build 0)  -->
<svg version="1.1" xmlns="http://www.w3.org/2000/svg" xmlns:xlink="http://www.w3.org/1999/xlink" x="0px" y="0px"
	 viewBox="0 0 141 132" style="enable-background:new 0 0 141 132;" xml:space="preserve">
<style type="text/css">
	.st0{fill:none;stroke:#28BF8D;stroke-width:2;stroke-linecap:round;stroke-miterlimit:10;}
	.st1{fill:none;stroke:#29DFAE;stroke-width:2;stroke-linecap:round;stroke-miterlimit:10;}
</style>
<g id="Layer_2">
	<path class="st0" d="M116.9,59.6V8.6c0-7.5-7.6-7.6-7.6-7.6H44.1c0,0,8.1,0.9,8.1,8.1v58.7"/>
	<path class="st0" d="M52,97.6c0,0-0.9,9,8.1,9s8.1-9,8.1-9V73.5c0,0,0.5-7.3,7.3-7.3h65.4c0,0-8.1,0.6-8.1,8.1v24.4
		c0,0-0.3,7.9-7.9,7.9l-64.9,0.1"/>
	<line class="st0" x1="80.5" y1="98.4" x2="84.2" y2="98.4"/>
	<line class="st0" x1="88.9" y1="98.4" x2="132.8" y2="98.4"/>
	<line class="st0" x1="64.2" y1="17.3" x2="88.1" y2="17.3"/>
	<line class="st1" x1="92.9" y1="17.3" x2="104.4" y2="17.3"/>
	<line class="st1" x1="64.2" y1="33.5" x2="88.1" y2="33.5"/>
	<line class="st1" x1="92.9" y1="33.5" x2="104.4" y2="33.5"/>
	<line class="st1" x1="104.4" y1="25.4" x2="80.5" y2="25.4"/>
	<line class="st1" x1="75.7" y1="25.4" x2="64.2" y2="25.4"/>
	<line class="st0" x1="64.2" y1="49.7" x2="88.1" y2="49.7"/>
	<line class="st0" x1="92.9" y1="49.7" x2="104.4" y2="49.7"/>
	<line class="st0" x1="104.4" y1="57.8" x2="80.5" y2="57.8"/>
	<line class="st0" x1="75.7" y1="57.8" x2="64.2" y2="57.8"/>
	<line class="st0" x1="104.4" y1="41.6" x2="80.5" y2="41.6"/>
	<line class="st1" x1="75.7" y1="41.6" x2="64.2" y2="41.6"/>
	<line class="st0" x1="22.7" y1="26.4" x2="25.2" y2="23.9"/>
	<line class="st0" x1="25.2" y1="35.4" x2="22.7" y2="32.9"/>
	<line class="st0" x1="13.7" y1="35.4" x2="16.2" y2="32.9"/>
	<line class="st0" x1="16.2" y1="26.4" x2="13.7" y2="23.9"/>
	<circle class="st0" cx="3.3" cy="45.7" r="2.3"/>
	<circle class="st0" cx="19.6" cy="57.8" r="4.2"/>
	<line class="st0" x1="44.1" y1="131" x2="55.7" y2="131"/>
	<line class="st0" x1="60.4" y1="131" x2="100.3" y2="131"/>
</g>
<g id="Layer_3">
	<path class="st1" d="M62.3,89.3l-19.6-0.1c0,0-14.5,0.1-16-7.2"/>
	<path class="st1" d="M15.8,81.9h10.9c0,0,3-6.1,14.8-7l20.6-0.6"/>
	<line class="st1" x1="51.4" y1="89.2" x2="51.4" y2="75.4"/>
</g>
</svg>
