<?xml version="1.0" encoding="utf-8"?>
<!-- Generator: Adobe Illustrator 22.0.0, SVG Export Plug-In . SVG Version: 6.00 Build 0)  -->
<svg version="1.1" id="Layer_1" xmlns="http://www.w3.org/2000/svg" xmlns:xlink="http://www.w3.org/1999/xlink" x="0px" y="0px"
	 viewBox="0 0 82.2 18.4" style="enable-background:new 0 0 82.2 18.4;" xml:space="preserve">
<style type="text/css">
	.st0{fill:#FFFFFF;}
</style>
<g>
	<path class="st0" d="M1.8,8.1H0.1v-8h5.7v1.5h-4v1.7h3.9v1.5H1.8V8.1z"/>
	<path class="st0" d="M13.9,8.1H12l-0.5-1.4H8.1L7.6,8.1h-2l3.1-8h2.1L13.9,8.1z M11,5.3L9.8,1.8L8.5,5.3H11z"/>
	<path class="st0" d="M17.4,8.3C16,8.3,14.9,7.8,14,7l1-1.3c0.7,0.7,1.5,1.1,2.5,1.1c0.4,0,0.8-0.1,1-0.3c0.2-0.2,0.4-0.4,0.4-0.6
		s-0.1-0.4-0.3-0.5c-0.2-0.1-0.5-0.2-0.9-0.3C17.4,5,17,4.9,16.6,4.8s-0.8-0.2-1.1-0.4c-0.3-0.2-0.6-0.4-0.9-0.7S14.3,3,14.3,2.5
		c0-0.7,0.3-1.3,0.8-1.7C15.7,0.2,16.4,0,17.3,0c1.3,0,2.3,0.4,3.1,1.1l-0.9,1.3c-0.6-0.6-1.4-0.9-2.3-0.9c-0.4,0-0.6,0.1-0.8,0.2
		C16.1,1.9,16,2.1,16,2.3s0.1,0.4,0.3,0.5s0.5,0.2,0.9,0.3c0.3,0.1,0.7,0.2,1.1,0.3s0.8,0.3,1.1,0.4C19.7,4,20,4.2,20.3,4.5
		c0.2,0.3,0.3,0.7,0.3,1.2c0,0.8-0.3,1.4-0.8,1.9S18.5,8.3,17.4,8.3z"/>
	<path class="st0" d="M25.2,8.1h-1.7V1.6h-2.3V0.1h6.4v1.5h-2.3v6.5H25.2z"/>
	<path class="st0" d="M33.4,8.1h-1.7v-8h5.7v1.5h-4v1.7h3.9v1.5h-3.9V8.1z"/>
	<path class="st0" d="M44.2,8.1h-5.7v-8h5.7v1.5h-4v1.7h3.9v1.5h-3.9v1.8h4V8.1z"/>
	<path class="st0" d="M48.7,8.1h-3.2v-8h3.2c1.3,0,2.3,0.4,3.1,1.1S53,2.9,53,4.1S52.6,6.3,51.8,7C51,7.8,50,8.1,48.7,8.1z
		 M48.7,6.6c0.8,0,1.4-0.2,1.8-0.7c0.5-0.5,0.7-1.1,0.7-1.8S51,2.8,50.5,2.3c-0.4-0.5-1-0.7-1.8-0.7h-1.5v5
		C47.2,6.6,48.7,6.6,48.7,6.6z"/>
	<path class="st0" d="M59.8,8.1h-5.7v-8h5.7v1.5h-4v1.7h3.9v1.5h-3.9v1.8h4V8.1z"/>
	<path class="st0" d="M67.6,8.1h-2L64,5.3h-1.2v2.8h-1.7v-8h3.7c0.8,0,1.5,0.2,2,0.7s0.7,1.1,0.7,1.9c0,0.7-0.2,1.2-0.5,1.6
		S66.2,5,65.8,5.1L67.6,8.1z M64.7,3.8c0.3,0,0.6-0.1,0.9-0.3c0.2-0.2,0.3-0.5,0.3-0.8s-0.1-0.6-0.3-0.8c-0.2-0.2-0.5-0.3-0.9-0.3
		h-1.8v2.2C62.9,3.8,64.7,3.8,64.7,3.8z"/>
	<path class="st0" d="M76.3,8.1h-1.9l-0.5-1.4h-3.4L70,8.1h-2l3.1-8h2.1L76.3,8.1z M73.4,5.3l-1.2-3.4L71,5.3H73.4z"/>
	<path class="st0" d="M82.1,8.1H77v-8h1.7v6.5h3.4V8.1z"/>
</g>
<g>
	<path class="st0" d="M3.8,15.2L3.8,15.2c0.3-0.3,0.5-0.8,0.5-1.3c0-0.6-0.2-1-0.6-1.4C3.4,12.2,2.9,12,2.4,12H0v6.3h0.8v-2.5h1.1
		l1.7,2.5h0.9l-1.8-2.6C3.2,15.7,3.5,15.5,3.8,15.2z M2.3,15.1H0.8v-2.4h1.6c0.4,0,0.7,0.1,0.9,0.3s0.3,0.5,0.3,0.8
		c0,0.4-0.1,0.6-0.3,0.9C3,15,2.7,15.1,2.3,15.1z"/>
	<polygon class="st0" points="12.7,18.3 16.8,18.3 16.8,17.6 13.4,17.6 13.4,15.4 16.7,15.4 16.7,14.7 13.4,14.7 13.4,12.7 
		16.8,12.7 16.8,12 12.7,12 	"/>
	<path class="st0" d="M28.6,15.2L28.6,15.2c-0.2-0.1-0.5-0.2-0.7-0.3c-0.3-0.1-0.5-0.2-0.8-0.2c-0.2-0.1-0.5-0.1-0.7-0.2
		c-0.2-0.1-0.4-0.2-0.5-0.3s-0.2-0.3-0.2-0.4c0-0.3,0.1-0.5,0.4-0.7c0.2-0.2,0.6-0.3,0.9-0.3c0.7,0,1.2,0.2,1.6,0.7l0.1,0.1l0.5-0.6
		l-0.1-0.1C28.6,12.3,27.9,12,27,12c-0.6,0-1.1,0.2-1.5,0.5s-0.6,0.7-0.6,1.3c0,0.3,0.1,0.6,0.2,0.8s0.3,0.4,0.6,0.5
		c0.2,0.1,0.5,0.2,0.7,0.3c0.3,0.1,0.5,0.2,0.8,0.2c0.3,0.1,0.5,0.2,0.7,0.2c0.2,0.1,0.4,0.2,0.5,0.3s0.2,0.3,0.2,0.5
		c0,0.3-0.1,0.5-0.3,0.8c-0.2,0.2-0.6,0.3-1.1,0.3c-0.7,0-1.3-0.3-1.8-0.8l-0.1-0.1l-0.5,0.6l0.1,0.1c0.6,0.7,1.3,1,2.3,1
		c0.8,0,1.4-0.2,1.7-0.5c0.4-0.4,0.6-0.8,0.6-1.3c0-0.3-0.1-0.6-0.2-0.9C29,15.5,28.8,15.3,28.6,15.2z"/>
	<path class="st0" d="M41.8,15.8c0,0.6-0.1,1-0.4,1.4c-0.3,0.3-0.7,0.5-1.3,0.5s-1-0.2-1.3-0.5s-0.4-0.8-0.4-1.4V12h-0.8v3.9
		c0,0.8,0.2,1.4,0.6,1.9c0.4,0.5,1,0.7,1.8,0.7s1.4-0.2,1.8-0.7c0.4-0.5,0.6-1.1,0.6-1.9V12h-0.8v3.8H41.8z"/>
	<polygon class="st0" points="54.1,16.8 52.1,12 51.1,12 51.1,18.3 51.9,18.3 51.9,13.4 53.9,18.3 54.3,18.3 56.3,13.4 56.3,18.3 
		57,18.3 57,12 56,12 	"/>
	<polygon class="st0" points="65.6,18.3 69.6,18.3 69.6,17.6 66.3,17.6 66.3,15.4 69.6,15.4 69.6,14.7 66.3,14.7 66.3,12.7 
		69.6,12.7 69.6,12 65.6,12 	"/>
	<path class="st0" d="M82,15.7c-0.1-0.2-0.3-0.4-0.6-0.6c-0.2-0.1-0.5-0.2-0.7-0.3c-0.3-0.1-0.5-0.2-0.8-0.2
		c-0.2-0.1-0.5-0.1-0.7-0.2c-0.2-0.1-0.4-0.2-0.5-0.3s-0.2-0.3-0.2-0.4c0-0.3,0.1-0.5,0.4-0.7c0.2-0.2,0.6-0.3,0.9-0.3
		c0.7,0,1.2,0.2,1.6,0.7l0.1,0.1l0.5-0.6l-0.1-0.1c-0.5-0.6-1.2-0.9-2.1-0.9c-0.6,0-1.1,0.2-1.5,0.5s-0.6,0.7-0.6,1.3
		c0,0.3,0.1,0.6,0.2,0.8s0.3,0.4,0.6,0.5c0.2,0.1,0.5,0.2,0.7,0.3c0.3,0.1,0.5,0.2,0.8,0.2c0.3,0.1,0.5,0.2,0.7,0.2
		c0.2,0.1,0.4,0.2,0.5,0.3s0.2,0.3,0.2,0.5c0,0.3-0.1,0.5-0.3,0.8c-0.2,0.2-0.6,0.3-1.1,0.3c-0.7,0-1.3-0.3-1.8-0.8l-0.1-0.1
		l-0.5,0.6l0.1,0.1c0.6,0.7,1.3,1,2.3,1c0.8,0,1.4-0.2,1.7-0.5c0.4-0.4,0.6-0.8,0.6-1.3C82.2,16.2,82.2,16,82,15.7z"/>
</g>
</svg>
