<?xml version="1.0" encoding="utf-8"?>
<!-- Generator: Adobe Illustrator 22.0.0, SVG Export Plug-In . SVG Version: 6.00 Build 0)  -->
<svg version="1.1" id="Layer_1" xmlns="http://www.w3.org/2000/svg" xmlns:xlink="http://www.w3.org/1999/xlink" x="0px" y="0px"
	 viewBox="0 0 141 45.7" style="enable-background:new 0 0 141 45.7;" xml:space="preserve">
<style type="text/css">
	.st0{fill:#FFFFFF;}
	.st1{fill:#FFFFFF;stroke:#FFFFFF;stroke-width:0.75;stroke-miterlimit:10;}
</style>
<g>
	<path class="st0" d="M20.9,5.6c0.5,0,0.9,0.4,0.9,0.9s-0.4,0.9-0.9,0.9h-5.1c-0.3,0.3-0.9,0.9-1.3,1.9l-1.1,3h1.3
		c0.5,0,0.9,0.4,0.9,0.9c0,0.5-0.4,0.9-0.9,0.9h-1.9l-2.2,6.1c-0.4,1.1-1.1,2-2,2.6c-0.9,0.7-2,1-3.2,1c-1.5,0-2.9-0.6-3.8-1.6
		c-1-1-1.6-2.3-1.6-3.8c0-1.5,0.6-2.9,1.6-3.8c1-1,2.3-1.6,3.8-1.6c1.4,0,2.8,0.5,3.8,1.6c0.4,0.4,0.4,0.9,0,1.3
		c-0.2,0.2-0.4,0.3-0.7,0.3c-0.3,0-0.5-0.1-0.7-0.3c-0.7-0.6-1.6-1-2.5-1c-1,0-1.9,0.4-2.5,1c-0.7,0.7-1.1,1.6-1.1,2.5
		c0,1,0.4,1.9,1.1,2.5c0.6,0.7,1.5,1.1,2.5,1.1c1.5,0,2.9-0.9,3.4-2.4l1.9-5.4H9.3c-0.5,0-0.9-0.4-0.9-0.9c0-0.5,0.4-0.9,0.9-0.9
		h2.1l1.3-3.7c0.2-0.5,0.4-0.9,0.6-1.2H8.5c-0.6,0-1,0.5-1,1s0.4,1,1,1c0.3,0,0.5-0.1,0.7-0.3C9.4,9.1,9.7,9,9.9,9
		c0.5,0,0.9,0.4,0.9,0.9c0,0.3-0.1,0.5-0.3,0.7c-0.6,0.6-1.3,0.9-2.1,0.9c-0.8,0-1.5-0.3-2.1-0.8c-0.5-0.5-0.8-1.2-0.8-2.1
		c0-0.8,0.3-1.5,0.8-2.1C7,6,7.7,5.6,8.5,5.6H20.9z"/>
	<path class="st0" d="M30.4,17.9l-0.9,2.5c-0.3,0.7-0.8,1.6-1.6,2.4c-0.8,0.7-1.7,1.3-2.9,1.3c-0.9,0-1.6-0.3-2-1
		c-0.2-0.3-0.3-0.6-0.4-0.9c-1.2,1.1-2.6,1.8-4,1.8c-2.2,0-3.3-1.8-3.4-3.7c-0.1-1.9,0.8-4,1.8-5.5c1-1.5,2.2-2.6,3.6-3.2
		c0.7-0.3,1.3-0.5,2-0.5c1.1,0,2,0.4,2.6,1.3l0.1,0.1c0,0,0,0.1,0.1,0.1l0.3-0.9c0.2-0.5,0.7-0.8,1.2-0.6s0.7,0.7,0.6,1.2l-2.9,8
		c-0.1,0.3-0.2,0.6-0.2,0.9c0,0.3,0.1,0.6,0.2,0.7c0,0,0.1,0.1,0.1,0.1c0.1,0.1,0.2,0.1,0.4,0.1c0.3,0,0.9-0.2,1.4-0.6
		c0.5-0.4,1-1,1.3-1.8l0.9-2.5c0.2-0.5,0.7-0.8,1.2-0.6S30.6,17.4,30.4,17.9z M21.4,20.8c0.9-0.8,1.8-2.1,2.3-3.6
		c0.7-1.8,0.4-3.1,0-3.7c-0.3-0.4-0.6-0.6-1.1-0.6c-0.8,0-1.8,0.5-2.7,1.3c-0.9,0.9-1.8,2.1-2.3,3.6c-0.7,1.8-0.5,3.1-0.1,3.7
		c0.3,0.4,0.6,0.6,1.1,0.6C19.4,22.2,20.4,21.7,21.4,20.8z"/>
	<path class="st0" d="M42,17.7l-0.2,0.4c0,0.1-0.1,0.2-0.2,0.5l-0.4,1.1c-0.3,1-0.9,2.1-1.7,3c-0.8,0.8-1.8,1.4-3,1.4
		c-0.6,0-1-0.2-1.3-0.4c-0.8,0.3-1.6,0.4-2.2,0.4c-0.3,0-0.7,0-1.2-0.2c-0.4-0.2-0.9-0.5-1.1-1.1c-0.2-0.8,0.2-1.8,1-2.3
		c0.8-0.5,2.2-0.7,3.5,0.4c0,0,0.1,0.1,0.1,0.1l0.1,0.1c0.4-0.6,0.4-1.1,0.2-1.7c-0.3-0.6-0.8-1.2-1.4-1.9l-0.9-0.9
		c-0.5-0.5-1-1-1.4-1.5l-1.2,3.4c-0.2,0.4-0.5,0.6-0.9,0.6c-0.1,0-0.2,0-0.3-0.1c-0.5-0.2-0.8-0.7-0.6-1.2l2.1-6
		c0.2-0.5,0.7-0.8,1.2-0.6s0.8,0.7,0.6,1.2l-0.1,0.3c0,0.1,0,0.1,0.1,0.3c0,0.1,0.1,0.3,0.3,0.5c0.4,0.5,1,1.1,1.6,1.7
		c0.8,0.7,1.6,1.6,2.2,2.4c0.6,0.9,1,1.8,0.9,2.8c-0.1,0.6-0.3,1.2-0.7,1.7c0.6-0.2,1.1-0.7,1.5-1.3c0.4-0.6,0.7-1.2,0.8-1.7
		c0.3-0.8,0.4-1.3,0.6-1.6l0.1-0.3c0-0.1,0-0.1,0.1-0.1c0.3-0.5,0.7-0.7,1.2-0.6C41.9,16.7,42.2,17.2,42,17.7z M33.9,22.1
		c-0.3-0.2-0.6-0.3-0.9-0.2c-0.2,0.1-0.2,0.1-0.3,0.2c0.1,0,0.2,0,0.4,0C33.4,22.2,33.7,22.1,33.9,22.1z"/>
	<path class="st0" d="M50.2,17.9c-0.1,0.3-0.3,0.9-0.7,1.6c-0.3,0.7-0.8,1.4-1.4,2.1c-1.4,1.7-2.9,2.5-4.7,2.5
		c-1.8,0-2.6-0.7-3.1-1.3c-0.7-1-0.8-2.3-0.2-3.8l2.4-6.7h-1c-0.5,0-0.9-0.4-0.9-0.9c0-0.5,0.4-0.9,0.9-0.9h1.7l1.5-4.1
		c0.2-0.5,0.7-0.8,1.2-0.6c0.5,0.2,0.7,0.7,0.6,1.2l-1.2,3.5H48c0.5,0,0.9,0.4,0.9,0.9c0,0.5-0.4,0.9-0.9,0.9h-3.4l-2.7,7.3
		c-0.2,0.4-0.2,0.8-0.2,1.2c0,0.7,0.2,1.4,1.7,1.4c1.5,0,2.7-1,3.5-2.2c0.8-1.1,1.3-2.4,1.4-2.8c0.2-0.5,0.7-0.7,1.2-0.6
		C50.1,16.9,50.3,17.4,50.2,17.9z"/>
	<path class="st0" d="M77.9,5.6c0.5,0,0.9,0.4,0.9,0.9s-0.4,0.9-0.9,0.9h-5.1c-0.3,0.3-0.9,0.9-1.3,1.9l-1.1,3h1.3
		c0.5,0,0.9,0.4,0.9,0.9c0,0.5-0.4,0.9-0.9,0.9h-1.9l-2.2,6.1c-0.4,1.1-1.1,2-2,2.6c-0.9,0.7-2,1-3.2,1c-1.5,0-2.9-0.6-3.8-1.6
		S57,20.1,57,18.6c0-1.5,0.6-2.9,1.6-3.8c1-1,2.3-1.6,3.8-1.6c1.4,0,2.8,0.5,3.8,1.6c0.4,0.4,0.4,0.9,0,1.3
		c-0.2,0.2-0.4,0.3-0.7,0.3c-0.3,0-0.5-0.1-0.7-0.3c-0.7-0.6-1.6-1-2.5-1c-1,0-1.9,0.4-2.5,1c-0.7,0.7-1.1,1.6-1.1,2.5
		c0,1,0.4,1.9,1.1,2.5c0.6,0.7,1.5,1.1,2.5,1.1c1.5,0,2.9-0.9,3.4-2.4l1.9-5.4h-1.4c-0.5,0-0.9-0.4-0.9-0.9c0-0.5,0.4-0.9,0.9-0.9
		h2.1l1.3-3.7c0.2-0.5,0.4-0.9,0.6-1.2h-4.9c-0.6,0-1,0.5-1,1s0.4,1,1,1c0.3,0,0.5-0.1,0.7-0.3C66.4,9.1,66.6,9,66.9,9
		c0.5,0,0.9,0.4,0.9,0.9c0,0.3-0.1,0.5-0.3,0.7c-0.6,0.6-1.3,0.9-2.1,0.9c-0.8,0-1.5-0.3-2.1-0.8s-0.8-1.2-0.8-2.1
		c0-0.8,0.3-1.5,0.8-2.1s1.2-0.9,2.1-0.9H77.9z"/>
	<path class="st0" d="M73.1,22.5c-0.6-0.8-0.7-1.7-0.7-2.6c0-0.9,0.3-1.8,0.6-2.6c0.6-1.7,1.7-3.3,2.9-4.4s2.6-1.8,3.9-1.8
		c1.1,0,1.8,0.3,2.3,0.8c0.5,0.4,0.7,1.1,0.7,1.6c0,1.3-1,2.9-2.6,4.2c-1.7,1.3-3.8,2.1-5.9,2.2c0,1.2,0.5,2,1.3,2.2
		c0.4,0.1,0.7,0.1,0.9,0.1c1.5,0,3-0.5,4.3-1.3c1.2-0.8,2.2-1.9,2.7-3.1c0.2-0.5,0.7-0.8,1.2-0.6c0.5,0.2,0.8,0.7,0.6,1.2
		c-0.6,1.7-1.8,3.1-3.4,4.1s-3.4,1.6-5.4,1.6C75,24.1,73.8,23.5,73.1,22.5z M77.1,14.4c-0.9,0.9-1.8,2.1-2.3,3.6l0,0c0,0,0,0,0,0.1
		c1-0.1,1.9-0.4,2.7-0.7c0.7-0.3,1.2-0.7,1.6-1c1.3-1,1.9-2.1,1.9-2.7c0-0.1,0-0.2-0.1-0.3c-0.1-0.1-0.2-0.1-0.3-0.2
		c-0.2,0-0.4-0.1-0.7-0.1C79,13,78,13.5,77.1,14.4z"/>
	<path class="st0" d="M99,17.9l-0.9,2.5c-0.3,0.9-0.9,1.7-1.6,2.4c-0.9,0.9-1.9,1.3-2.9,1.3c-0.9,0-1.6-0.3-2-1
		c-0.2-0.3-0.3-0.6-0.4-0.9c-1.3,1.1-2.7,1.8-4,1.8c-2.3,0-3.3-1.9-3.4-3.8c-0.1-1.9,0.8-4,1.8-5.5c1-1.5,2.3-2.7,3.7-3.3
		c0.7-0.3,1.3-0.5,2-0.5c1.1,0,2,0.4,2.6,1.3l0.1,0.1c0,0,0,0.1,0.1,0.1l2.3-6.3c0.2-0.5,0.7-0.8,1.2-0.6C98,5.9,98.2,6.4,98,6.9
		l-4,11l-0.9,2.5C93,20.7,93,21,93,21.3c0,0.3,0.1,0.6,0.2,0.7c0,0,0.1,0.1,0.1,0.1c0.1,0.1,0.2,0.1,0.4,0.1c0.6,0,1.2-0.3,1.7-0.8
		c0.5-0.5,0.8-1.1,1-1.6l0.9-2.5c0.2-0.5,0.7-0.7,1.2-0.6C98.9,16.9,99.1,17.4,99,17.9z M89.9,20.8c0.9-0.8,1.8-2.1,2.3-3.6
		c0.7-1.9,0.5-3.1,0.1-3.7C92,13.1,91.7,13,91.2,13c-0.8,0-1.8,0.5-2.7,1.3c-0.9,0.9-1.8,2.1-2.4,3.6c-0.7,1.9-0.4,3.2,0,3.8
		c0.2,0.3,0.6,0.5,1.1,0.5C87.9,22.2,89,21.7,89.9,20.8z"/>
	<path class="st0" d="M97.9,22.5c-0.6-0.8-0.7-1.7-0.7-2.6c0-0.9,0.3-1.8,0.6-2.6c0.6-1.7,1.7-3.3,2.9-4.4s2.6-1.8,3.9-1.8
		c1.1,0,1.8,0.3,2.3,0.8c0.5,0.4,0.7,1.1,0.7,1.6c0,1.3-1,2.9-2.6,4.2c-1.7,1.3-3.8,2.1-5.9,2.2c0,1.2,0.5,2,1.3,2.2
		c0.4,0.1,0.7,0.1,0.9,0.1c1.5,0,3-0.5,4.3-1.3c1.2-0.8,2.2-1.9,2.7-3.1c0.2-0.5,0.7-0.8,1.2-0.6c0.5,0.2,0.8,0.7,0.6,1.2
		c-0.6,1.7-1.8,3.1-3.4,4.1s-3.4,1.6-5.4,1.6C99.8,24.1,98.7,23.5,97.9,22.5z M101.9,14.4c-0.9,0.9-1.8,2.1-2.3,3.6l0,0
		c0,0,0,0,0,0.1c1-0.1,1.9-0.4,2.7-0.7c0.7-0.3,1.2-0.7,1.6-1c1.3-1,1.9-2.1,1.9-2.7c0-0.1,0-0.2-0.1-0.3c-0.1-0.1-0.2-0.1-0.3-0.2
		c-0.2,0-0.4-0.1-0.7-0.1C103.8,13,102.8,13.5,101.9,14.4z"/>
	<path class="st0" d="M112.7,23.1c-0.3-0.5-0.5-1.1-0.5-1.7c0-0.6,0.1-1.2,0.3-1.7l1.7-4.7c0.1-0.1,0.1-0.2,0-0.3
		c-0.1-0.3-0.6-0.5-0.8-0.6l-0.1,0l-1.1-0.4c-0.1,0.1-0.1,0.3-0.2,0.4l-0.2,0.5l-1.4,3.8c-0.2,0.5-0.7,0.7-1.2,0.6s-0.8-0.7-0.6-1.2
		l1.4-3.8l0.4-1.2c-1.1-0.7-1.5-1.6-1.6-2.3c-0.1-0.7,0.3-1.6,1.1-2c0.4-0.2,0.9-0.2,1.3-0.1c0.2,0.1,0.5,0.3,0.8,0.6
		c0.2,0.3,0.5,0.8,0.5,1.6c0,0.4,0,0.8-0.1,1.2l1.3,0.6c0.1,0,0.5,0.2,0.8,0.4c0.4,0.2,0.8,0.6,1,1.1c0.3,0.5,0.3,1.1,0.1,1.8
		l-1.7,4.7c-0.2,0.6-0.3,1.3-0.1,1.6c0,0,0.1,0.1,0.1,0.1s0.2,0.1,0.3,0.1c0.6,0,1.2-0.3,1.7-0.8s0.9-1.1,1.1-1.6l0.9-2.5
		c0.2-0.5,0.7-0.7,1.2-0.6s0.7,0.7,0.6,1.2l-0.9,2.5c-0.2,0.7-0.8,1.6-1.6,2.4c-0.8,0.7-1.8,1.3-2.9,1.3
		C113.8,24.1,113.1,23.8,112.7,23.1z"/>
	<path class="st0" d="M133.5,17.9l-0.9,2.5c-0.3,0.7-0.8,1.6-1.6,2.4c-0.8,0.7-1.7,1.3-2.9,1.3c-0.9,0-1.6-0.3-2-1
		c-0.2-0.3-0.3-0.6-0.4-0.9c-1.2,1.1-2.6,1.8-4,1.8c-2.2,0-3.3-1.8-3.4-3.7c-0.1-1.9,0.8-4,1.8-5.5c1-1.5,2.2-2.6,3.6-3.2
		c0.7-0.3,1.3-0.5,2-0.5c1.1,0,2,0.4,2.6,1.3l0.1,0.1c0,0,0,0.1,0.1,0.1l0.3-0.9c0.2-0.5,0.7-0.8,1.2-0.6s0.7,0.7,0.6,1.2l-2.9,8
		c-0.1,0.3-0.2,0.6-0.2,0.9c0,0.3,0.1,0.6,0.2,0.7c0,0,0.1,0.1,0.1,0.1c0.1,0.1,0.2,0.1,0.4,0.1c0.3,0,0.9-0.2,1.4-0.6
		c0.5-0.4,1-1,1.3-1.8l0.9-2.5c0.2-0.5,0.7-0.8,1.2-0.6S133.7,17.4,133.5,17.9z M124.5,20.8c0.9-0.8,1.8-2.1,2.3-3.6
		c0.7-1.8,0.4-3.1,0-3.7c-0.3-0.4-0.6-0.6-1.1-0.6c-0.8,0-1.8,0.5-2.7,1.3c-0.9,0.9-1.8,2.1-2.3,3.6c-0.7,1.8-0.5,3.1-0.1,3.7
		c0.3,0.4,0.6,0.6,1.1,0.6C122.5,22.2,123.6,21.7,124.5,20.8z"/>
	<path class="st0" d="M132.1,22.9c-0.4-0.6-0.6-1.4-0.6-2.1s0.2-1.5,0.4-2.2l4.5-12.3c0.2-0.5,0.7-0.8,1.2-0.6
		c0.5,0.2,0.7,0.7,0.6,1.2l-4.5,12.3c-0.2,0.5-0.3,1-0.3,1.4c0,0.5,0.1,0.8,0.3,1.1c0.1,0.2,0.3,0.4,0.9,0.4c1,0,1.9-0.6,2.4-1.2
		c0.7-0.7,1.3-1.6,1.6-2.4l0.5-1.3c0.2-0.5,0.7-0.7,1.2-0.6c0.5,0.2,0.8,0.7,0.6,1.2l-0.5,1.3c-0.4,1.1-1.2,2.2-2.1,3.2
		c-1.2,1.1-2.4,1.7-3.7,1.7C133.2,24.1,132.5,23.4,132.1,22.9z"/>
</g>
<g>
	<path class="st1" d="M37.2,42h-0.9v-9.3h2.9c1.9,0,3.1,0.8,3.1,2.5c0,1.3-0.9,2.3-2.4,2.4l2.7,4.4h-1.2l-2.6-4.3h-1.6V42z
		 M37.2,36.8h1.7c1.7,0,2.3-0.7,2.3-1.6s-0.6-1.6-2.3-1.6h-1.7V36.8z"/>
	<path class="st1" d="M47,41.1h5V42h-5.9v-9.3h5.8v0.9H47v3.2h4.5v0.9H47V41.1z"/>
	<path class="st1" d="M60.3,34.2c-0.4-0.6-1-0.9-1.8-0.9c-1,0-2,0.5-2,1.7c0,2.5,4.8,1.2,4.8,4.5c0,1.7-1.6,2.7-3.1,2.7
		c-1.1,0-2.2-0.4-2.9-1.4l0.9-0.6c0.4,0.7,1.1,1.1,2.1,1.1c0.9,0,2-0.6,2-1.7c0-2.6-4.8-1.2-4.8-4.6c0-1.8,1.5-2.6,3-2.6
		c1.1,0,1.9,0.3,2.6,1.1L60.3,34.2z"/>
	<path class="st1" d="M71.9,38.5c0,1.6-0.6,3.7-3.4,3.7c-2.8,0-3.4-2.2-3.4-3.7v-5.8h0.9v5.7c0,2.7,1.7,2.9,2.5,2.9
		c0.7,0,2.5-0.3,2.5-2.9v-5.7h0.9V38.5z"/>
	<path class="st1" d="M80.9,40.2l3.1-7.6h1.4V42h-0.9v-8h0l-3.4,8h-0.5l-3.4-8h0v8h-0.9v-9.3h1.4L80.9,40.2z"/>
	<path class="st1" d="M91,41.1h5V42h-5.9v-9.3h5.8v0.9H91v3.2h4.5v0.9H91V41.1z"/>
	<path class="st1" d="M104.3,34.2c-0.4-0.6-1-0.9-1.8-0.9c-1,0-2,0.5-2,1.7c0,2.5,4.8,1.2,4.8,4.5c0,1.7-1.6,2.7-3.1,2.7
		c-1.1,0-2.2-0.4-2.9-1.4l0.9-0.6c0.4,0.7,1.1,1.1,2.1,1.1c0.9,0,2-0.6,2-1.7c0-2.6-4.8-1.2-4.8-4.6c0-1.8,1.5-2.6,3-2.6
		c1.1,0,1.9,0.3,2.6,1.1L104.3,34.2z"/>
</g>
</svg>
